HIERARCHY
ROOT Hips
{
	OFFSET 173.408295 91.952423 -518.280273
	CHANNELS 6 Xposition Yposition Zposition Zrotation Yrotation Xrotation 
	JOINT LeftUpLeg
	{
		OFFSET 0.103459 1.857827 10.548504
		CHANNELS 3 Zrotation Yrotation Xrotation
		JOINT LeftLeg
		{
			OFFSET 43.500008 0.000000 0.000004
			CHANNELS 3 Zrotation Yrotation Xrotation
			JOINT LeftFoot
			{
				OFFSET 42.372192 0.000011 0.000000
				CHANNELS 3 Zrotation Yrotation Xrotation
				JOINT LeftToe
				{
					OFFSET 17.299973 -0.000013 -0.000010
					CHANNELS 3 Zrotation Yrotation Xrotation
					End Site
					{
						OFFSET 0.000000 0.000000 0.000000
					}
				}
			}
		}
	}
	JOINT RightUpLeg
	{
		OFFSET 0.103454 1.857830 -10.548500
		CHANNELS 3 Zrotation Yrotation Xrotation
		JOINT RightLeg
		{
			OFFSET 43.500038 -0.000038 0.000004
			CHANNELS 3 Zrotation Yrotation Xrotation
			JOINT RightFoot
			{
				OFFSET 42.372253 0.000019 0.000024
				CHANNELS 3 Zrotation Yrotation Xrotation
				JOINT RightToe
				{
					OFFSET 17.299988 -0.000007 0.000004
					CHANNELS 3 Zrotation Yrotation Xrotation
					End Site
					{
						OFFSET 0.000000 0.000000 0.000000
					}
				}
			}
		}
	}
	JOINT Spine
	{
		OFFSET 6.901963 -2.603744 0.000004
		CHANNELS 3 Zrotation Yrotation Xrotation
		JOINT Spine1
		{
			OFFSET 12.588104 0.000008 -0.000010
			CHANNELS 3 Zrotation Yrotation Xrotation
			JOINT Spine2
			{
				OFFSET 12.343202 -0.000005 0.000010
				CHANNELS 3 Zrotation Yrotation Xrotation
				JOINT Neck
				{
					OFFSET 25.832897 0.000000 0.000001
					CHANNELS 3 Zrotation Yrotation Xrotation
					JOINT Head
					{
						OFFSET 11.766611 -0.000006 -0.000000
						CHANNELS 3 Zrotation Yrotation Xrotation
						End Site
						{
							OFFSET 0.000000 0.000000 0.000000
						}
					}
				}
				JOINT LeftShoulder
				{
					OFFSET 19.745899 -1.480366 6.000108
					CHANNELS 3 Zrotation Yrotation Xrotation
					JOINT LeftArm
					{
						OFFSET 11.284111 -0.000018 -0.000015
						CHANNELS 3 Zrotation Yrotation Xrotation
						JOINT LeftForeArm
						{
							OFFSET 33.000050 -0.000005 0.000028
							CHANNELS 3 Zrotation Yrotation Xrotation
							JOINT LeftHand
							{
								OFFSET 25.200012 0.000000 0.000002
								CHANNELS 3 Zrotation Yrotation Xrotation
								End Site
								{
									OFFSET 0.000000 0.000000 0.000000
								}
							}
						}
					}
				}
				JOINT RightShoulder
				{
					OFFSET 19.746111 -1.480335 -6.000074
					CHANNELS 3 Zrotation Yrotation Xrotation
					JOINT RightArm
					{
						OFFSET 11.284151 0.000036 0.000001
						CHANNELS 3 Zrotation Yrotation Xrotation
						JOINT RightForeArm
						{
							OFFSET 33.000092 -0.000035 0.000022
							CHANNELS 3 Zrotation Yrotation Xrotation
							JOINT RightHand
							{
								OFFSET 25.199768 0.000178 0.000417
								CHANNELS 3 Zrotation Yrotation Xrotation
								End Site
								{
									OFFSET 0.000000 0.000000 0.000000
								}
							}
						}
					}
				}
			}
		}
	}
}
MOTION
Frames: 5
Frame Time: 0.033333
173.706802 91.897400 -517.522095 88.883144 -0.251866 88.116496 175.425759 -4.497292 170.732080 -17.020724 1.102064 1.251272 77.611057 -1.676159 -2.928519 21.454551 0.003098 0.000001 176.598298 1.861502 -178.262145 -15.048210 4.308973 4.680697 77.763118 -2.799026 2.428542 21.454558 -0.003111 -0.000020 5.495136 -0.232790 0.229504 0.976501 -0.467404 0.457187 0.658414 -0.464496 0.460000 5.237083 0.415717 -17.159882 16.178222 7.995633 -17.454519 -165.966794 -77.208397 -15.827915 2.382148 64.162804 31.762900 -31.210444 -12.979929 1.123398 -1.729169 -10.793292 14.275207 -146.380503 72.882599 35.907940 -9.734455 -63.452287 -35.722200 -29.438064 12.804726 -1.104006 3.534206 7.640082 -10.911658 
173.831604 91.888710 -517.370117 88.869517 -0.228144 88.096545 175.532733 -4.423705 170.744047 -17.064340 1.099005 1.215046 77.729834 -1.629208 -2.861996 21.454551 0.003098 -0.000001 176.709985 1.943302 -178.193953 -15.066499 4.300944 4.618868 77.811694 -2.731517 2.523607 21.454560 -0.003118 -0.000019 5.429920 -0.257763 0.194855 0.846132 -0.516862 0.387992 0.528020 -0.514374 0.391114 4.860712 1.033068 -16.731925 16.728004 7.231995 -16.853570 -169.177625 -77.077408 -12.552543 -0.124742 64.317562 31.712442 -26.070742 -11.281348 0.920612 0.221891 -9.577596 11.783708 -148.833674 73.124791 33.385456 -10.311613 -63.462955 -36.793249 -26.932150 11.861122 -0.998249 4.721069 5.581610 -11.699546 
173.963699 91.878754 -517.228088 88.872721 -0.220447 88.251816 175.574439 -4.334395 170.812991 -17.125723 1.087865 1.249120 77.831426 -1.620713 -2.750975 21.454553 0.003091 0.000000 176.803558 2.038297 -178.218869 -15.108978 4.316943 4.710380 77.889647 -2.758059 2.679868 21.454558 -0.003106 -0.000018 5.372949 -0.283544 0.132848 0.732418 -0.567865 0.264099 0.414316 -0.566125 0.267527 4.386365 1.587566 -16.259926 17.168352 6.473052 -16.225493 -173.589968 -76.933427 -8.049522 -1.741463 64.066143 32.971973 -22.466540 -9.746230 0.767829 1.477895 -10.544960 10.167157 -151.316134 73.332333 30.834865 -9.908984 -63.315054 -38.268501 -26.044240 11.368214 -0.951664 5.554524 4.948117 -11.533946 
174.111404 91.866440 -517.102417 88.886552 -0.221982 88.541299 175.551844 -4.225395 170.928954 -17.225138 1.081131 1.333552 77.928511 -1.639193 -2.605680 21.454550 0.003078 -0.000000 176.876560 2.157896 -178.248171 -15.185344 4.355901 4.878398 77.987790 -2.831108 2.867810 21.454558 -0.003111 -0.000017 5.337859 -0.312471 0.060484 0.662562 -0.625264 0.119387 0.344447 -0.624417 0.123173 3.696206 2.066976 -15.851541 17.635099 5.787641 -15.663927 -179.135686 -76.748671 -2.387900 -2.236755 63.518396 35.537874 -20.864502 -8.768337 0.683700 2.331077 -12.519784 9.386442 -154.075407 73.451875 28.003316 -8.686591 -62.856667 -40.057738 -26.689132 11.246529 -0.954440 5.831005 5.618145 -10.349348 
174.279404 91.853188 -516.990723 88.900376 -0.204194 88.891886 175.520685 -4.100993 171.073918 -17.340455 1.076753 1.433410 78.020841 -1.663228 -2.439120 21.454555 0.003099 0.000002 176.962579 2.284399 -178.170389 -15.278604 4.361654 5.020639 78.080940 -2.881720 3.070646 21.454557 -0.003118 -0.000017 5.331180 -0.342511 -0.009133 0.649583 -0.684997 -0.019959 0.331474 -0.684981 -0.015815 2.858595 2.460902 -15.541132 18.113344 5.183129 -15.207438 175.702887 -76.544161 2.883377 -2.078744 62.824797 38.397449 -21.106949 -8.424782 0.664210 2.676556 -14.280881 9.468213 -156.766420 73.480473 25.243664 -7.481904 -62.118180 -41.819732 -28.193549 11.243434 -0.980255 5.365587 7.111207 -8.995976 
